<svg width="35" height="35" viewBox="0 0 35 35" fill="none" xmlns="http://www.w3.org/2000/svg">
<path d="M26.8333 15.4584C24.1354 13.1104 20.6354 11.6667 16.7708 11.6667C10.7042 11.6667 5.48333 15.1959 3.00416 20.3146C2.5375 21.2917 3.0625 22.4584 4.09791 22.8084C4.95833 23.1 5.89166 22.6917 6.28541 21.875C8.18125 17.9959 12.1625 15.3125 16.7708 15.3125C19.6146 15.3125 22.2104 16.3625 24.2375 18.0542L21.4521 20.8396C20.5333 21.7584 21.175 23.3334 22.4729 23.3334H30.625C31.4271 23.3334 32.0833 22.6771 32.0833 21.875V13.7229C32.0833 12.425 30.5083 11.7688 29.5896 12.6875L26.8333 15.4584Z" fill="#F2EBE9"/>
</svg>
