<svg width="36" height="36" viewBox="0 0 36 36" fill="none" xmlns="http://www.w3.org/2000/svg">
<rect width="36" height="36" rx="18" fill="white" fill-opacity="0.1"/>
<g clip-path="url(#clip0_1_2516)">
<path fill-rule="evenodd" clip-rule="evenodd" d="M24.4161 9.52461C24.6725 9.48146 24.935 9.49517 25.1855 9.56481C25.4361 9.63446 25.6686 9.75835 25.8669 9.92788C26.0652 10.0974 26.2245 10.3085 26.3339 10.5465C26.4432 10.7845 26.4999 11.0437 26.5 11.306V21.9838C26.4998 22.7792 26.2397 23.5523 25.76 24.1833C25.2803 24.8142 24.6078 25.2677 23.8467 25.4734C23.0857 25.6792 22.2788 25.6257 21.5509 25.3212C20.8231 25.0167 20.2152 24.4782 19.8213 23.7893C19.4275 23.1004 19.2698 22.2996 19.3727 21.511C19.4756 20.7224 19.8333 19.9901 20.3904 19.4277C20.9476 18.8653 21.6729 18.5042 22.454 18.4004C23.2351 18.2966 24.0282 18.4559 24.7105 18.8536V14.9195L15.7631 16.4254V22.8871C15.7631 22.9413 15.7586 22.9928 15.7497 23.0443C15.8139 23.739 15.6487 24.4356 15.28 25.0256C14.9112 25.6156 14.3594 26.0659 13.7107 26.3064C13.062 26.5468 12.3528 26.5638 11.6935 26.3548C11.0342 26.1458 10.4619 25.7225 10.0657 25.1508C9.66955 24.5792 9.4718 23.8913 9.50325 23.1943C9.5347 22.4974 9.79359 21.8305 10.2396 21.2976C10.6856 20.7647 11.2937 20.3956 11.9691 20.248C12.6444 20.1004 13.3492 20.1825 13.9736 20.4815V12.8119C13.9735 12.3843 14.1238 11.9704 14.3975 11.6441C14.6713 11.3177 15.0509 11.1 15.4687 11.0296L24.4161 9.52461ZM15.7631 14.5943L24.7105 13.0884V11.306L15.7631 12.8119V14.5943Z" fill="#F2EBE9"/>
</g>
<defs>
<clipPath id="clip0_1_2516">
<rect width="20" height="20" fill="white" transform="translate(8 8)"/>
</clipPath>
</defs>
</svg>
