<svg width="56" height="56" viewBox="0 0 56 56" fill="none" xmlns="http://www.w3.org/2000/svg">
<rect width="56" height="56" rx="28" fill="#FE6847"/>
<path fill-rule="evenodd" clip-rule="evenodd" d="M21.3563 21.2158C21.3804 21.0028 21.452 20.7987 21.5652 20.6196C21.6784 20.4405 21.8302 20.2915 22.0085 20.1843C22.1867 20.0771 22.3866 20.0148 22.592 20.0023C22.7975 19.9898 23.0029 20.0275 23.1919 20.1123C24.1475 20.538 26.2891 21.5496 29.0065 23.1837C31.7248 24.8187 33.6369 26.2466 34.4674 26.8944C35.1765 27.4485 35.1783 28.5473 34.4683 29.1032C33.6459 29.7473 31.7572 31.1564 29.0065 32.8121C26.2531 34.4677 24.1367 35.4671 23.1901 35.8871C22.3749 36.25 21.4625 35.6996 21.3563 34.7837C21.2322 33.713 21 31.282 21 27.9988C21 24.7175 21.2313 22.2874 21.3563 21.2158Z" fill="#642D20"/>
</svg>
