<svg width="35" height="35" viewBox="0 0 35 35" fill="none" xmlns="http://www.w3.org/2000/svg">
<path d="M18.2292 11.6667C14.3646 11.6667 10.8646 13.1104 8.16666 15.4584L5.41041 12.7021C4.49166 11.7834 2.91666 12.425 2.91666 13.7229V21.875C2.91666 22.6771 3.57291 23.3334 4.375 23.3334H12.5271C13.825 23.3334 14.4812 21.7584 13.5625 20.8396L10.7771 18.0542C12.8042 16.3625 15.3854 15.3125 18.2437 15.3125C22.8521 15.3125 26.8333 17.9959 28.7292 21.875C29.1229 22.6917 30.0562 23.1 30.9167 22.8084C31.9521 22.4729 32.4771 21.2917 32.0104 20.3C29.5021 15.1959 24.2812 11.6667 18.2292 11.6667Z" fill="#F2EBE9"/>
</svg>
