<svg width="24" height="24" viewBox="0 0 24 24" fill="none" xmlns="http://www.w3.org/2000/svg">
<g clip-path="url(#clip0_1_2949)">
<path d="M14.6246 7.01662C14.4162 6.80832 14.1336 6.6913 13.839 6.6913C13.5444 6.6913 13.2618 6.80832 13.0535 7.01662L7.32345 12.7466C7.11506 12.9549 6.99796 13.2375 6.99789 13.5322V16.4394C6.99789 16.7488 7.24956 17.0005 7.55901 17.0005L16.4446 17C16.5919 17 16.7332 16.9414 16.8374 16.8372C16.9416 16.733 17.0001 16.5917 17.0001 16.4444C17.0001 16.2971 16.9416 16.1557 16.8374 16.0516C16.7332 15.9474 16.5919 15.8888 16.4446 15.8888H12.0379L16.9818 10.945C17.1901 10.7366 17.3071 10.454 17.3071 10.1594C17.3071 9.86477 17.1901 9.5822 16.9818 9.37384L14.6246 7.01662Z" fill="#F2EBE9"/>
</g>
<defs>
<clipPath id="clip0_1_2949">
<rect width="13.3333" height="13.3333" fill="white" transform="translate(5.33334 5.33334)"/>
</clipPath>
</defs>
</svg>
