<svg width="36" height="36" viewBox="0 0 36 36" fill="none" xmlns="http://www.w3.org/2000/svg">
<rect width="36" height="36" rx="18" fill="white" fill-opacity="0.1"/>
<g clip-path="url(#clip0_1_2950)">
<path fill-rule="evenodd" clip-rule="evenodd" d="M17.9999 19.1783L22.7141 23.8924C22.8713 24.0442 23.0818 24.1282 23.3003 24.1263C23.5188 24.1244 23.7278 24.0368 23.8823 23.8823C24.0368 23.7278 24.1244 23.5188 24.1263 23.3003C24.1282 23.0818 24.0442 22.8713 23.8924 22.7141L19.1783 17.9999L23.8924 13.2858C24.0442 13.1286 24.1282 12.9181 24.1263 12.6996C24.1244 12.4811 24.0368 12.2721 23.8823 12.1176C23.7278 11.9631 23.5188 11.8754 23.3003 11.8735C23.0818 11.8716 22.8713 11.9556 22.7141 12.1074L17.9999 16.8216L13.2858 12.1074C13.1279 11.9594 12.9186 11.8786 12.7022 11.8821C12.4858 11.8856 12.2793 11.9732 12.1263 12.1263C11.9733 12.2793 11.8859 12.486 11.8825 12.7024C11.8791 12.9188 11.9601 13.128 12.1083 13.2858L16.8216 17.9999L12.1074 22.7141C12.0278 22.791 11.9644 22.8829 11.9207 22.9846C11.877 23.0863 11.854 23.1956 11.8531 23.3063C11.8521 23.4169 11.8732 23.5266 11.9151 23.6291C11.957 23.7315 12.0189 23.8245 12.0971 23.9028C12.1753 23.981 12.2684 24.0429 12.3708 24.0848C12.4732 24.1267 12.583 24.1478 12.6936 24.1468C12.8043 24.1458 12.9136 24.1228 13.0153 24.0792C13.1169 24.0355 13.2089 23.972 13.2858 23.8924L17.9999 19.1783Z" fill="#F2EBE9"/>
</g>
<defs>
<clipPath id="clip0_1_2950">
<rect width="20" height="20" fill="white" transform="translate(8 8)"/>
</clipPath>
</defs>
</svg>
