<svg width="24" height="24" viewBox="0 0 24 24" fill="none" xmlns="http://www.w3.org/2000/svg">
<g clip-path="url(#clip0_1_2964)">
<path fill-rule="evenodd" clip-rule="evenodd" d="M10.975 3.002C11.0335 3.26058 10.987 3.53182 10.8456 3.75609C10.7042 3.98037 10.4795 4.13932 10.221 4.198C10.0248 4.24258 9.83028 4.29462 9.638 4.354C9.51252 4.39274 9.38064 4.40638 9.24989 4.39415C9.11914 4.38193 8.99207 4.34407 8.87595 4.28273C8.75983 4.2214 8.65693 4.13779 8.57312 4.03669C8.48931 3.93559 8.42624 3.81897 8.3875 3.6935C8.34876 3.56802 8.33511 3.43614 8.34734 3.30539C8.35957 3.17463 8.39743 3.04757 8.45876 2.93145C8.5201 2.81533 8.6037 2.71243 8.7048 2.62862C8.8059 2.54481 8.92252 2.48174 9.048 2.443C9.288 2.369 9.532 2.303 9.778 2.248C9.90611 2.21886 10.0387 2.21526 10.1682 2.23739C10.2977 2.25952 10.4216 2.30695 10.5327 2.37697C10.6439 2.44699 10.7402 2.53823 10.8161 2.64548C10.8919 2.75272 10.946 2.87387 10.975 3.002ZM13.025 3.002C13.0837 2.74345 13.2426 2.51878 13.4669 2.37739C13.6912 2.236 13.9624 2.18946 14.221 2.248C18.675 3.258 22.001 7.24 22.001 12C22.001 17.523 17.523 22 12.001 22C7.24 22 3.258 18.675 2.248 14.221C2.19616 13.965 2.24655 13.6988 2.3884 13.4795C2.53025 13.2601 2.7523 13.105 3.00705 13.0473C3.2618 12.9895 3.52904 13.0338 3.7516 13.1705C3.97416 13.3072 4.13438 13.5256 4.198 13.779C4.51621 15.1728 5.2021 16.4558 6.1843 17.4946C7.1665 18.5334 8.40912 19.29 9.78288 19.6857C11.1566 20.0814 12.6113 20.1018 13.9956 19.7447C15.3799 19.3876 16.6433 18.666 17.6542 17.6552C18.665 16.6443 19.3866 15.3809 19.7437 13.9966C20.1008 12.6123 20.0804 11.1576 19.6847 9.78387C19.289 8.41011 18.5324 7.16749 17.4936 6.1853C16.4548 5.2031 15.1718 4.51721 13.778 4.19899C13.5194 4.14011 13.2948 3.98091 13.1536 3.75644C13.0124 3.53196 12.9661 3.26058 13.025 3.002ZM6.614 4.72C6.70343 4.81629 6.77301 4.92926 6.81875 5.05246C6.86449 5.17565 6.8855 5.30666 6.88058 5.43798C6.87565 5.5693 6.8449 5.69837 6.79006 5.81779C6.73523 5.93722 6.65739 6.04467 6.561 6.134C6.413 6.27 6.271 6.413 6.134 6.56C5.95234 6.74902 5.70372 6.85914 5.44166 6.86666C5.17961 6.87417 4.92508 6.77848 4.73289 6.60018C4.54069 6.42188 4.4262 6.17524 4.41406 5.91336C4.40193 5.65148 4.49312 5.3953 4.668 5.2C4.838 5.016 5.016 4.838 5.2 4.667C5.29629 4.57756 5.40926 4.50799 5.53246 4.46225C5.65566 4.41651 5.78666 4.3955 5.91798 4.40042C6.04931 4.40534 6.17837 4.4361 6.2978 4.49093C6.41723 4.54577 6.52467 4.62361 6.614 4.72ZM12 6C12.2652 6 12.5196 6.10535 12.7071 6.29289C12.8946 6.48042 13 6.73478 13 7V11.586L15.707 14.293C15.8892 14.4816 15.99 14.7342 15.9877 14.9964C15.9854 15.2586 15.8802 15.5094 15.6948 15.6948C15.5094 15.8802 15.2586 15.9854 14.9964 15.9877C14.7342 15.9899 14.4816 15.8892 14.293 15.707L11.293 12.707C11.1054 12.5195 11.0001 12.2652 11 12V7C11 6.73478 11.1054 6.48042 11.2929 6.29289C11.4804 6.10535 11.7348 6 12 6ZM3.693 8.38799C3.94639 8.46613 4.15837 8.64172 4.28233 8.87613C4.40629 9.11054 4.43207 9.38458 4.354 9.63799C4.29463 9.83028 4.24259 10.0248 4.198 10.221C4.13438 10.4743 3.97416 10.6927 3.7516 10.8295C3.52904 10.9662 3.2618 11.0105 3.00705 10.9527C2.7523 10.895 2.53025 10.7398 2.3884 10.5205C2.24655 10.3012 2.19616 10.035 2.248 9.779C2.304 9.532 2.369 9.28899 2.443 9.049C2.52114 8.7956 2.69672 8.58362 2.93113 8.45966C3.16554 8.33571 3.43958 8.30993 3.693 8.38799Z" fill="#F2EBE9"/>
</g>
<defs>
<clipPath id="clip0_1_2964">
<rect width="24" height="24" fill="white"/>
</clipPath>
</defs>
</svg>
