<svg preserveAspectRatio="none" width="100%" height="100%" overflow="visible" style="display: block;" viewBox="0 0 20 20" fill="none" xmlns="http://www.w3.org/2000/svg">
<g id="check_2_fill">
<g id="Vector">
</g>
<path id="Vector_2" d="M10.0498 1.04994C10.2947 1.04998 10.5311 1.1399 10.7142 1.30266C10.8972 1.46542 11.0141 1.68969 11.0428 1.93294L11.0498 2.04994V18.0499C11.0495 18.3048 10.9519 18.55 10.777 18.7353C10.602 18.9206 10.3629 19.0322 10.1084 19.0471C9.85397 19.0621 9.60343 18.9793 9.40797 18.8157C9.21252 18.6521 9.08691 18.42 9.0568 18.1669L9.0498 18.0499V2.04994C9.0498 1.78473 9.15516 1.53037 9.3427 1.34284C9.53023 1.1553 9.78459 1.04994 10.0498 1.04994ZM6.0498 4.04994C6.31502 4.04994 6.56937 4.1553 6.75691 4.34284C6.94445 4.53037 7.0498 4.78473 7.0498 5.04994V15.0499C7.0498 15.3152 6.94445 15.5695 6.75691 15.7571C6.56937 15.9446 6.31502 16.0499 6.0498 16.0499C5.78459 16.0499 5.53023 15.9446 5.3427 15.7571C5.15516 15.5695 5.0498 15.3152 5.0498 15.0499V5.04994C5.0498 4.78473 5.15516 4.53037 5.3427 4.34284C5.53023 4.1553 5.78459 4.04994 6.0498 4.04994ZM14.0498 4.04994C14.315 4.04994 14.5694 4.1553 14.7569 4.34284C14.9444 4.53037 15.0498 4.78473 15.0498 5.04994V15.0499C15.0498 15.3152 14.9444 15.5695 14.7569 15.7571C14.5694 15.9446 14.315 16.0499 14.0498 16.0499C13.7846 16.0499 13.5302 15.9446 13.3427 15.7571C13.1552 15.5695 13.0498 15.3152 13.0498 15.0499V5.04994C13.0498 4.78473 13.1552 4.53037 13.3427 4.34284C13.5302 4.1553 13.7846 4.04994 14.0498 4.04994ZM2.0498 7.04994C2.31502 7.04994 2.56937 7.1553 2.75691 7.34284C2.94445 7.53037 3.0498 7.78473 3.0498 8.04994V12.0499C3.0498 12.3152 2.94445 12.5695 2.75691 12.7571C2.56937 12.9446 2.31502 13.0499 2.0498 13.0499C1.78459 13.0499 1.53023 12.9446 1.3427 12.7571C1.15516 12.5695 1.0498 12.3152 1.0498 12.0499V8.04994C1.0498 7.78473 1.15516 7.53037 1.3427 7.34284C1.53023 7.1553 1.78459 7.04994 2.0498 7.04994ZM18.0498 7.04994C18.2947 7.04998 18.5311 7.1399 18.7142 7.30266C18.8972 7.46542 19.0141 7.68969 19.0428 7.93295L19.0498 8.04994V12.0499C19.0495 12.3048 18.9519 12.55 18.777 12.7353C18.602 12.9206 18.3629 13.0322 18.1084 13.0471C17.854 13.0621 17.6034 12.9793 17.408 12.8157C17.2125 12.6521 17.0869 12.42 17.0568 12.1669L17.0498 12.0499V8.04994C17.0498 7.78473 17.1552 7.53037 17.3427 7.34284C17.5302 7.1553 17.7846 7.04994 18.0498 7.04994Z" fill="var(--fill-0, #F2EBE9)"/>
</g>
</svg>
