<svg width="14" height="17" viewBox="0 0 14 17" fill="none" xmlns="http://www.w3.org/2000/svg">
<path d="M12.7493 8.5085C12.8599 8.52413 12.9664 8.56144 13.0627 8.61828C13.1589 8.67512 13.243 8.75038 13.3101 8.83976C13.3772 8.92913 13.426 9.03086 13.4537 9.13912C13.4815 9.24739 13.4876 9.36006 13.4718 9.4707C13.2587 10.9446 12.5679 12.3079 11.5054 13.3514C10.4429 14.3949 9.06729 15.0609 7.58976 15.2473V16.15C7.58976 16.3754 7.50021 16.5916 7.3408 16.751C7.1814 16.9104 6.9652 17 6.73976 17C6.51433 17 6.29813 16.9104 6.13872 16.751C5.97932 16.5916 5.88976 16.3754 5.88976 16.15V15.2473C4.41244 15.0606 3.03714 14.3945 1.97481 13.351C0.912473 12.3076 0.221763 10.9444 0.00861567 9.4707C-0.023396 9.24752 0.0345613 9.02076 0.169738 8.84031C0.304914 8.65987 0.506236 8.54051 0.729415 8.5085C0.952595 8.47649 1.17935 8.53444 1.3598 8.66962C1.54025 8.8048 1.6596 9.00612 1.69162 9.2293C1.86741 10.4427 2.47442 11.5523 3.40148 12.3547C4.32855 13.1572 5.51365 13.5988 6.73976 13.5988C7.96588 13.5988 9.15097 13.1572 10.078 12.3547C11.0051 11.5523 11.6121 10.4427 11.7879 9.2293C11.8037 9.11878 11.8412 9.01247 11.8981 8.91644C11.9551 8.8204 12.0303 8.73652 12.1197 8.66958C12.2091 8.60265 12.3107 8.55397 12.4189 8.52633C12.527 8.49869 12.6388 8.49263 12.7493 8.5085ZM6.73976 0C7.86693 0 8.94794 0.447766 9.74497 1.2448C10.542 2.04183 10.9898 3.12283 10.9898 4.25V8.5C10.9898 9.62717 10.542 10.7082 9.74497 11.5052C8.94794 12.3022 7.86693 12.75 6.73976 12.75C5.61259 12.75 4.53159 12.3022 3.73456 11.5052C2.93753 10.7082 2.48976 9.62717 2.48976 8.5V4.25C2.48976 3.12283 2.93753 2.04183 3.73456 1.2448C4.53159 0.447766 5.61259 0 6.73976 0Z" fill="#F2EBE9"/>
</svg>
