<svg width="20" height="20" viewBox="0 0 20 20" fill="none" xmlns="http://www.w3.org/2000/svg">
<path d="M17.9423 3.16597L12.7112 16.4519C12.6595 16.5835 12.5755 16.7005 12.4668 16.7925C12.358 16.8846 12.2278 16.9488 12.0877 16.9795C11.9477 17.0102 11.8021 17.0064 11.6639 16.9685C11.5256 16.9306 11.3991 16.8597 11.2954 16.7622L8.34679 13.9893L6.53858 15.7662C6.47757 15.826 6.3999 15.8667 6.31538 15.8831C6.23087 15.8995 6.1433 15.891 6.06372 15.8585C5.98415 15.8261 5.91615 15.7711 5.8683 15.7007C5.82046 15.6303 5.79491 15.5475 5.79489 15.4628V11.5893L1.26914 7.33348C1.15685 7.22786 1.07532 7.09465 1.03298 6.94764C0.990641 6.80063 0.989039 6.64517 1.02834 6.49735C1.06764 6.34953 1.14641 6.21473 1.2565 6.10689C1.36659 5.99906 1.504 5.92211 1.6545 5.88402L16.9118 2.02681C17.0669 1.98775 17.23 1.99143 17.3831 2.03747C17.5362 2.0835 17.6735 2.17011 17.7799 2.28778C17.8862 2.40546 17.9576 2.54966 17.9861 2.70457C18.0146 2.85948 17.9991 3.01912 17.9415 3.16597H17.9423ZM15.8211 4.14313L6.25872 10.2727L7.77137 11.6956L15.8211 4.14313Z" fill="#642D20"/>
</svg>
