<svg width="20" height="20" viewBox="0 0 20 20" fill="none" xmlns="http://www.w3.org/2000/svg">
  <path d="M10 12.0833C11.7259 12.0833 13.125 10.6842 13.125 8.95833V5.83333C13.125 4.10744 11.7259 2.70833 10 2.70833C8.27411 2.70833 6.875 4.10744 6.875 5.83333V8.95833C6.875 10.6842 8.27411 12.0833 10 12.0833Z" fill="#F2EBE9"/>
  <path d="M4.7915 8.95837C4.7915 11.8349 7.12335 14.1667 9.99984 14.1667C12.8763 14.1667 15.2082 11.8349 15.2082 8.95837H16.4582C16.4582 12.2611 13.9789 14.9847 10.6248 15.3708V17.2917H9.37484V15.3708C6.02076 14.9847 3.5415 12.2611 3.5415 8.95837H4.7915Z" fill="#F2EBE9"/>
</svg>
