<svg preserveAspectRatio="none" width="100%" height="100%" overflow="visible" style="display: block;" viewBox="0 0 20 20" fill="none" xmlns="http://www.w3.org/2000/svg">
<g id="mic_fill">
<g id="Vector">
</g>
<path id="Vector_2" d="M15.8917 10.0083C16.0002 10.0237 16.1046 10.0602 16.1989 10.116C16.2933 10.1717 16.3757 10.2455 16.4415 10.3331C16.5073 10.4207 16.5551 10.5205 16.5823 10.6266C16.6095 10.7327 16.6155 10.8432 16.6 10.9517C16.3911 12.3967 15.7139 13.7333 14.6722 14.7563C13.6305 15.7793 12.2819 16.4323 10.8333 16.615V17.5C10.8333 17.721 10.7455 17.933 10.5893 18.0893C10.433 18.2455 10.221 18.3333 10 18.3333C9.77899 18.3333 9.56702 18.2455 9.41074 18.0893C9.25446 17.933 9.16667 17.721 9.16667 17.5V16.615C7.71831 16.432 6.36998 15.7789 5.32847 14.7559C4.28697 13.7329 3.6098 12.3965 3.40083 10.9517C3.36945 10.7329 3.42627 10.5106 3.5588 10.3336C3.69132 10.1567 3.8887 10.0397 4.1075 10.0083C4.3263 9.97695 4.54861 10.0338 4.72552 10.1663C4.90243 10.2988 5.01945 10.4962 5.05083 10.715C5.22318 11.9047 5.81828 12.9924 6.72718 13.7791C7.63607 14.5658 8.79792 14.9988 10 14.9988C11.2021 14.9988 12.3639 14.5658 13.2728 13.7791C14.1817 12.9924 14.7768 11.9047 14.9492 10.715C14.9647 10.6067 15.0014 10.5024 15.0572 10.4083C15.113 10.3141 15.1868 10.2319 15.2744 10.1663C15.362 10.1006 15.4617 10.0529 15.5678 10.0258C15.6738 9.99872 15.7833 9.99278 15.8917 10.0083ZM10 1.66667C11.1051 1.66667 12.1649 2.10565 12.9463 2.88706C13.7277 3.66846 14.1667 4.72826 14.1667 5.83333V10C14.1667 11.1051 13.7277 12.1649 12.9463 12.9463C12.1649 13.7277 11.1051 14.1667 10 14.1667C8.89493 14.1667 7.83512 13.7277 7.05372 12.9463C6.27232 12.1649 5.83333 11.1051 5.83333 10V5.83333C5.83333 4.72826 6.27232 3.66846 7.05372 2.88706C7.83512 2.10565 8.89493 1.66667 10 1.66667Z" fill="var(--fill-0, #F2EBE9)"/>
</g>
</svg>
