<svg preserveAspectRatio="none" width="100%" height="100%" overflow="visible" style="display: block;" viewBox="0 0 17.7432 16.9998" fill="none" xmlns="http://www.w3.org/2000/svg">
<path id="Union" d="M10.4365 3.00684C10.1766 4.01705 10.185 5.07776 10.46 6.08398C10.7349 7.09021 11.2673 8.00752 12.0049 8.74512C12.7425 9.48271 13.6598 10.0151 14.666 10.29C15.6722 10.565 16.733 10.5734 17.7432 10.3135C17.6824 11.6698 17.2282 12.9791 16.4365 14.082C15.6447 15.1851 14.549 16.034 13.2832 16.5254C12.0175 17.0167 10.6362 17.1294 9.30762 16.8496C7.97898 16.5698 6.7599 15.9103 5.7998 14.9502C4.83971 13.9901 4.18017 12.771 3.90039 11.4424C3.62064 10.1138 3.73325 8.7325 4.22461 7.4668C4.71604 6.20104 5.56494 5.10528 6.66797 4.31348C7.77089 3.52176 9.08023 3.06763 10.4365 3.00684ZM1.25 5.25C1.38261 5.25 1.50975 5.30272 1.60352 5.39648C1.69728 5.49025 1.75 5.61739 1.75 5.75V6H2C2.13261 6 2.25975 6.05272 2.35352 6.14648C2.44728 6.24025 2.5 6.36739 2.5 6.5C2.5 6.63261 2.44728 6.75975 2.35352 6.85352C2.25975 6.94728 2.13261 7 2 7H1.75V7.25C1.75 7.38261 1.69728 7.50975 1.60352 7.60352C1.50975 7.69728 1.38261 7.75 1.25 7.75C1.11739 7.75 0.990253 7.69728 0.896484 7.60352C0.802716 7.50975 0.75 7.38261 0.75 7.25V7H0.5C0.367392 7 0.240253 6.94728 0.146484 6.85352C0.0527163 6.75975 0 6.63261 0 6.5C0 6.36739 0.0527163 6.24025 0.146484 6.14648C0.240253 6.05272 0.367392 6 0.5 6H0.75V5.75C0.75 5.61739 0.802716 5.49025 0.896484 5.39648C0.990253 5.30272 1.11739 5.25 1.25 5.25ZM4.25 0C4.38261 0 4.50975 0.0527162 4.60352 0.146484C4.69728 0.240253 4.75 0.367392 4.75 0.5V1H5.25C5.38261 1 5.50975 1.05272 5.60352 1.14648C5.69728 1.24025 5.75 1.36739 5.75 1.5C5.75 1.63261 5.69728 1.75975 5.60352 1.85352C5.50975 1.94728 5.38261 2 5.25 2H4.75V2.5C4.75 2.63261 4.69728 2.75975 4.60352 2.85352C4.50975 2.94728 4.38261 3 4.25 3C4.11739 3 3.99025 2.94728 3.89648 2.85352C3.80272 2.75975 3.75 2.63261 3.75 2.5V2H3.25C3.11739 2 2.99025 1.94728 2.89648 1.85352C2.80272 1.75975 2.75 1.63261 2.75 1.5C2.75 1.36739 2.80272 1.24025 2.89648 1.14648C2.99025 1.05272 3.11739 1 3.25 1H3.75V0.5C3.75 0.367392 3.80272 0.240253 3.89648 0.146484C3.99025 0.0527162 4.11739 0 4.25 0Z" fill="url(#paint0_linear_0_309)"/>
<defs>
<linearGradient id="paint0_linear_0_309" x1="8.87158" y1="0" x2="8.87158" y2="16.9998" gradientUnits="userSpaceOnUse">
<stop stop-color="#B6B0AF"/>
<stop offset="1" stop-color="#FFCDC2"/>
</linearGradient>
</defs>
</svg>
