<svg preserveAspectRatio="none" width="100%" height="100%" overflow="visible" style="display: block;" viewBox="0 0 15.9972 15.9984" fill="none" xmlns="http://www.w3.org/2000/svg">
<path id="Vector" d="M8.67829 0.267187C8.29391 -0.0890625 7.70016 -0.0890625 7.31891 0.267187L0.318915 6.76719C0.0189147 7.04844 -0.0810853 7.48281 0.0689147 7.86406C0.218915 8.24531 0.58454 8.49844 0.99704 8.49844H1.49704V13.9984C1.49704 15.1016 2.39391 15.9984 3.49704 15.9984H12.497C13.6002 15.9984 14.497 15.1016 14.497 13.9984V8.49844H14.997C15.4095 8.49844 15.7783 8.24531 15.9283 7.86406C16.0783 7.48281 15.9783 7.04531 15.6783 6.76719L8.67829 0.267187ZM7.49704 9.99844H8.49704C9.32516 9.99844 9.99704 10.6703 9.99704 11.4984V14.4984H5.99704V11.4984C5.99704 10.6703 6.66891 9.99844 7.49704 9.99844Z" fill="url(#paint0_linear_0_214)"/>
<defs>
<linearGradient id="paint0_linear_0_214" x1="7.9986" y1="1.49012e-08" x2="7.9986" y2="15.9984" gradientUnits="userSpaceOnUse">
<stop stop-color="#B6B0AF"/>
<stop offset="1" stop-color="#FFCDC2"/>
</linearGradient>
</defs>
</svg>
