<svg preserveAspectRatio="none" width="100%" height="100%" overflow="visible" style="display: block;" viewBox="0 0 12 16" fill="none" xmlns="http://www.w3.org/2000/svg">
<path id="Vector" d="M10.6487 0H0.865415C0.617364 0.0417882 0.393061 0.170881 0.234053 0.363367C0.0750436 0.555854 -0.00789705 0.798691 0.000592795 1.0469V12.7029C-8.00257e-05 12.9367 0.0712819 13.1653 0.205218 13.3582C0.339154 13.5511 0.529338 13.6993 0.750556 13.7831L6.15569 15.9169C6.33607 15.9871 6.53089 16.0134 6.72373 15.9936C6.91657 15.9739 7.10178 15.9087 7.26375 15.8035C7.42272 15.6959 7.55262 15.5515 7.64211 15.383C7.73161 15.2145 7.778 15.0269 7.77724 14.8367V3.50079C7.77794 3.26698 7.70746 3.03836 7.57495 2.84456C7.44243 2.65076 7.25398 2.50072 7.03403 2.41388L5.09494 1.6537C5.05874 1.63899 5.02884 1.61233 5.01036 1.57828C4.99187 1.54422 4.98594 1.50489 4.99359 1.467C5.00263 1.42935 5.02417 1.39578 5.05478 1.37161C5.08539 1.34745 5.12331 1.33408 5.1625 1.33363H10.4731C10.5185 1.3336 10.5622 1.35095 10.5949 1.38203C10.6277 1.41312 10.647 1.45552 10.6487 1.50034V12.4828C10.647 12.5276 10.6277 12.57 10.5949 12.6011C10.5622 12.6322 10.5185 12.6495 10.4731 12.6495H9.29743C9.11824 12.6495 8.94639 12.7198 8.81968 12.8448C8.69297 12.9699 8.62179 13.1395 8.62179 13.3163C8.62179 13.4932 8.69297 13.6628 8.81968 13.7878C8.94639 13.9129 9.11824 13.9831 9.29743 13.9831H10.6487C11.0071 13.9831 11.3508 13.8426 11.6042 13.5925C11.8576 13.3424 12 13.0032 12 12.6495V1.33363C12 0.979931 11.8576 0.640717 11.6042 0.390612C11.3508 0.140507 11.0071 0 10.6487 0Z" fill="url(#paint0_linear_0_310)"/>
<defs>
<linearGradient id="paint0_linear_0_310" x1="6" y1="0" x2="6" y2="16" gradientUnits="userSpaceOnUse">
<stop stop-color="#B6B0AF"/>
<stop offset="1" stop-color="#FFCDC2"/>
</linearGradient>
</defs>
</svg>
