<svg preserveAspectRatio="none" width="100%" height="100%" overflow="visible" style="display: block;" viewBox="0 0 16 16" fill="none" xmlns="http://www.w3.org/2000/svg">
<g id="more_1_fill">
<g id="Vector">
</g>
<path id="Vector_2" d="M3.33333 6.66663C3.68696 6.66663 4.02609 6.8071 4.27614 7.05715C4.52619 7.3072 4.66667 7.64634 4.66667 7.99996C4.66667 8.35358 4.52619 8.69272 4.27614 8.94277C4.02609 9.19282 3.68696 9.33329 3.33333 9.33329C2.97971 9.33329 2.64057 9.19282 2.39052 8.94277C2.14048 8.69272 2 8.35358 2 7.99996C2 7.64634 2.14048 7.3072 2.39052 7.05715C2.64057 6.8071 2.97971 6.66663 3.33333 6.66663ZM8 6.66663C8.35362 6.66663 8.69276 6.8071 8.94281 7.05715C9.19286 7.3072 9.33333 7.64634 9.33333 7.99996C9.33333 8.35358 9.19286 8.69272 8.94281 8.94277C8.69276 9.19282 8.35362 9.33329 8 9.33329C7.64638 9.33329 7.30724 9.19282 7.05719 8.94277C6.80714 8.69272 6.66667 8.35358 6.66667 7.99996C6.66667 7.64634 6.80714 7.3072 7.05719 7.05715C7.30724 6.8071 7.64638 6.66663 8 6.66663ZM12.6667 6.66663C13.0203 6.66663 13.3594 6.8071 13.6095 7.05715C13.8595 7.3072 14 7.64634 14 7.99996C14 8.35358 13.8595 8.69272 13.6095 8.94277C13.3594 9.19282 13.0203 9.33329 12.6667 9.33329C12.313 9.33329 11.9739 9.19282 11.7239 8.94277C11.4738 8.69272 11.3333 8.35358 11.3333 7.99996C11.3333 7.64634 11.4738 7.3072 11.7239 7.05715C11.9739 6.8071 12.313 6.66663 12.6667 6.66663Z" fill="url(#paint0_linear_0_311)"/>
</g>
<defs>
<linearGradient id="paint0_linear_0_311" x1="8" y1="6.66663" x2="8" y2="9.33329" gradientUnits="userSpaceOnUse">
<stop stop-color="#B6B0AF"/>
<stop offset="1" stop-color="#FFCDC2"/>
</linearGradient>
</defs>
</svg>
