<svg preserveAspectRatio="none" width="100%" height="100%" overflow="visible" style="display: block;" viewBox="0 0 17 15" fill="none" xmlns="http://www.w3.org/2000/svg">
<path id="Vector" d="M16.9423 1.16597L11.7112 14.4519C11.6595 14.5835 11.5755 14.7005 11.4668 14.7925C11.358 14.8846 11.2278 14.9488 11.0877 14.9795C10.9477 15.0102 10.8021 15.0064 10.6639 14.9685C10.5256 14.9306 10.3991 14.8597 10.2954 14.7622L7.34679 11.9893L5.53858 13.7662C5.47757 13.826 5.3999 13.8667 5.31538 13.8831C5.23087 13.8995 5.1433 13.891 5.06372 13.8585C4.98415 13.8261 4.91615 13.7711 4.8683 13.7007C4.82046 13.6303 4.79491 13.5475 4.79489 13.4628V9.58927L0.269143 5.33348C0.156852 5.22786 0.0753172 5.09465 0.0329791 4.94764C-0.00935892 4.80063 -0.010961 4.64517 0.0283388 4.49735C0.0676386 4.34953 0.146412 4.21473 0.256503 4.10689C0.366594 3.99906 0.504001 3.92211 0.654499 3.88402L15.9118 0.0268118C16.0669 -0.0122543 16.23 -0.0085678 16.3831 0.0374671C16.5362 0.0835019 16.6735 0.170107 16.7799 0.287783C16.8862 0.405459 16.9576 0.549661 16.9861 0.704572C17.0146 0.859484 16.9991 1.01912 16.9414 1.16597H16.9423ZM14.8211 2.14313L5.25872 8.27267L6.77137 9.69556L14.8211 2.14313Z" fill="var(--fill-0, #642D20)"/>
</svg>
